<svg xmlns="http://www.w3.org/2000/svg" viewBox="0 0 70 70"><defs><style>.cls-1{fill:#b2b2b2;}.cls-2{fill:#fff;opacity:0.3;}.cls-3{fill:#af9584;}.cls-4{fill:#3d3d3d;}</style></defs><title>icon33</title><g id="Layer_3" data-name="Layer 3"><g id="spatula"><path class="cls-1" d="M45.6,13.48c0,2.95-3.11,14.44-6,24.22l-.14.4a1,1,0,0,0,0,.34H29.83c0-.1,0-.24,0-.34l-.12-.38c-2.92-9.76-6-21.27-6-24.24a4.82,4.82,0,0,1,5-5h12A4.82,4.82,0,0,1,45.6,13.48Z"/><path class="cls-2" d="M45.6,13.48c0,2.95-3.11,14.44-6,24.22l-.14.4a1,1,0,0,0,0,.34H34.62v-30h6A4.82,4.82,0,0,1,45.6,13.48Z"/><path class="cls-3" d="M41.61,55.42a6.78,6.78,0,0,1-7,7,6.78,6.78,0,0,1-7-7,77,77,0,0,1,2-16.16l.15-.56a2.34,2.34,0,0,0,0-.26h9.58a1.31,1.31,0,0,0,.1.4l.06.34A75.65,75.65,0,0,1,41.61,55.42Z"/><path class="cls-4" d="M40.41,38.4l.12-.38C41.15,36,46.6,17.64,46.6,13.48a5.82,5.82,0,0,0-6-6h-12a5.82,5.82,0,0,0-6,6c0,4.16,5.46,22.47,6.08,24.54l.12.38-.14.56a76.25,76.25,0,0,0-2.06,16.46,7.77,7.77,0,0,0,8,8,7.77,7.77,0,0,0,8-8A77,77,0,0,0,40.55,39ZM24.63,13.48c0-4,4-4,4-4h12s4,0,4,4-6,24-6,24h-8S24.63,17.47,24.63,13.48Zm10,47.93s-6,0-6-6a75.85,75.85,0,0,1,2-16h8a75.5,75.5,0,0,1,2,16C40.61,61.41,34.62,61.41,34.62,61.41Z"/></g></g></svg>