<svg xmlns="http://www.w3.org/2000/svg" viewBox="0 0 70 70"><defs><style>.cls-1{fill:#3d3d3d;}.cls-2{fill:#b2b2b2;}.cls-3{fill:#f9b4b4;}.cls-4{fill:#4d937b;}.cls-5{fill:#f4cdb3;}</style></defs><title>icon32</title><g id="Layer_2" data-name="Layer 2"><g id="pencil"><path class="cls-1" d="M34.83,14.45a22.47,22.47,0,0,1-3.68-.3l-1.58-.26.93-1.31c2.44-3.4,3.47-4.09,4.33-4.09s1.92.7,4.31,4.1l.92,1.3-1.57.26A22.14,22.14,0,0,1,34.83,14.45Z"/><rect class="cls-2" x="23.85" y="48.44" width="21.97" height="3.99"/><path class="cls-3" d="M32.83,62.42c-3.1,0-9-1.88-9-9v-1h22v1c0,3.11-1.88,9-9,9Z"/><path class="cls-4" d="M45.82,22V48.44h-22V22l1.49.88c1.06.6,3.72,1.64,9.49,1.64s8.43-1,9.49-1.64Z"/><path class="cls-5" d="M34.83,24.47c-5.87,0-8.52-1.07-9.58-1.7l-.85-.51.5-.85c.68-1.16,2.46-4.18,4.35-7l.38-.57.67.15a20.62,20.62,0,0,0,4.53.49A20.77,20.77,0,0,0,39.37,14l.67-.15.38.57c1.89,2.83,3.67,5.84,4.34,7l.5.85-.85.51C43.56,23.28,40.93,24.47,34.83,24.47Z"/><path class="cls-1" d="M46.56,22.47c-8.57-15-10.71-15-11.73-15s-3.15,0-11.72,15l-.26.46v30.5c0,7.91,6.53,10,10,10h4c7.91,0,10-6.53,10-10V22.93Zm-11.73-13c.68,0,2,1.58,3.5,3.67a21.7,21.7,0,0,1-7,0C32.81,11.07,34.15,9.49,34.83,9.49ZM30.08,15a21.74,21.74,0,0,0,4.75.52A21.83,21.83,0,0,0,39.59,15c1.67,2.52,3.33,5.27,4.31,7-.7.42-3.12,1.56-9.07,1.56s-8.37-1.14-9.07-1.56C26.74,20.23,28.4,17.48,30.08,15Zm6.75,46.46h-4s-8,0-8-8h20S44.82,61.42,36.83,61.42Zm8-10h-20v-2h20Zm0-4h-2v-3a1,1,0,0,0-2,0v3h-2v-7a1,1,0,0,0-2,0v7h-12V23.69a9.56,9.56,0,0,0,2,.82V36.45a1,1,0,0,0,2,0V25a33,33,0,0,0,6,.48c6,0,8.81-1.1,10-1.78Z"/></g></g></svg>