<svg xmlns="http://www.w3.org/2000/svg" viewBox="0 0 70 70"><defs><style>.cls-1{fill:#dfdece;}.cls-2{fill:#ffe578;}.cls-3{fill:#a9fdff;}.cls-4{fill:#7dff9f;}.cls-5{fill:#ff5757;}.cls-6{fill:#3d3d3d;}</style></defs><title>icon34</title><g id="Layer_4" data-name="Layer 4"><g id="art_palette" data-name="art palette"><path class="cls-1" d="M34.86,62.42c-2.61,0-4.25-.44-4.88-1.3-.78-1-.14-3.08.48-5,.76-2.43,1.63-5.19.14-7.21-1.21-1.66-3.67-2.43-7.73-2.43-14.8,0-15-12.45-15-13,0-13.54,12.35-25,27-25a27,27,0,0,1,27,27C61.82,51.58,51,62.42,34.86,62.42Z"/><circle class="cls-2" cx="18.88" cy="31.46" r="4.99"/><circle class="cls-3" cx="30.86" cy="21.47" r="4.99"/><circle class="cls-4" cx="46.84" cy="25.47" r="4.99"/><circle class="cls-5" cx="50.84" cy="41.45" r="4.99"/><path class="cls-6" d="M18.88,27.47a4,4,0,1,1-4,4,4,4,0,0,1,4-4m0-2a6,6,0,1,0,6,6,6,6,0,0,0-6-6Zm12-8a4,4,0,1,1-4,4,4,4,0,0,1,4-4m0-2a6,6,0,1,0,6,6,6,6,0,0,0-6-6Zm16,6a4,4,0,1,1-4,4,4,4,0,0,1,4-4m0-2a6,6,0,1,0,6,6,6,6,0,0,0-6-6Zm4,18a4,4,0,1,1-4,4,4,4,0,0,1,4-4m0-2a6,6,0,1,0,6,6,6,6,0,0,0-6-6Zm-16-26a26,26,0,0,1,26,26c0,12.93-8,26-26,26-3.18,0-3.93-.68-4.08-.89-.47-.64.14-2.59.63-4.15.84-2.66,1.78-5.67,0-8.1-1.42-1.94-4.13-2.84-8.54-2.84-13.49,0-14-10.76-14-12,0-13,11.89-24,26-24m0-2c-15.44,0-28,12-28,26,0,0,0,14,16,14,18,0-4,16,12,16,18,0,28-12.52,28-28a28,28,0,0,0-28-28Z"/></g></g></svg>