<svg id="Layer_1" data-name="Layer 1" xmlns="http://www.w3.org/2000/svg" viewBox="0 0 70 70"><defs><style>.cls-1{fill:#b2b2b2;}.cls-2{fill:#fff;opacity:0.3;}.cls-3{fill:#3d3d3d;}</style></defs><title>icon31</title><g id="ruler"><rect class="cls-1" x="27.23" y="8.49" width="13.98" height="53.93"/><rect class="cls-2" x="36.22" y="8.49" width="4.99" height="53.93"/><path class="cls-3" d="M40.22,7.49h-14V63.41h16V7.49Zm0,53.92h-12v-2h3a1,1,0,0,0,0-2h-3v-2h1a1,1,0,1,0,0-2h-1v-2h1a1,1,0,0,0,0-2h-1v-2h3a1,1,0,1,0,0-2h-3v-2h1a1,1,0,1,0,0-2h-1v-2h1a1,1,0,1,0,0-2h-1v-2h3a1,1,0,0,0,0-2h-3v-2h1a1,1,0,1,0,0-2h-1v-2h1a1,1,0,0,0,0-2h-1v-2h3a1,1,0,1,0,0-2h-3v-2h1a1,1,0,1,0,0-2h-1v-2h1a1,1,0,0,0,0-2h-1v-4h12Z"/></g></svg>