<?xml version="1.0" encoding="utf-8"?>
<!-- Generator: Adobe Illustrator 23.0.2, SVG Export Plug-In . SVG Version: 6.00 Build 0)  -->
<svg version="1.1" id="Layer_1" xmlns="http://www.w3.org/2000/svg" xmlns:xlink="http://www.w3.org/1999/xlink" x="0px" y="0px"
	 viewBox="0 0 200 200" style="enable-background:new 0 0 200 200;" xml:space="preserve">
<style type="text/css">
	.st0{fill:#FFFFFF;}
	.st1{fill:#9BDF48;}
</style>
<title>logo</title>
<path class="st0" d="M192,8v184H8V8H192 M200,0H0v200h200V0z"/>
<path class="st1" d="M83,45.6v6.2H70.7v-6.2H83z M83,54.2v39.1H70.7V54.2L83,54.2z"/>
<path class="st0" d="M109.1,54.2l-0.2,3.6c0.8-1.3,1.8-2.4,3.2-3.2c1.3-0.7,2.8-1.1,4.3-1.1c1.8-0.1,3.5,0.4,5,1.4
	c1.2,0.9,2.1,2.2,2.5,3.6c0.5,2.4,0.6,4.9,0.6,7.3v27.4h-11.9V66.2c0.1-1.6,0-3.3-0.3-4.9c-0.2-0.6-0.7-0.9-1.5-0.9
	c-0.7-0.1-1.4,0.3-1.6,1c-0.3,1.8-0.4,3.6-0.3,5.4v26.4H97V54.2H109.1z"/>
<path class="st0" d="M85.3,103.9v6c-1.5-0.1-2.9,0-4.3,0.3c-0.4,0.2-0.7,0.9-0.7,1.9v1.2h5v6.2h-2.8v31.9H70.6v-31.9h-2.4v-6.2h2.4
	c-0.1-1.7,0-3.4,0.3-5.2c0.2-0.9,0.7-1.7,1.3-2.3c0.8-0.8,1.8-1.3,2.9-1.6c1.9-0.4,3.9-0.6,5.9-0.5L85.3,103.9z"/>
<path class="st1" d="M124.3,126.2v9.6c0.1,2.6-0.1,5.2-0.5,7.7c-0.4,1.7-1.2,3.3-2.3,4.6c-1.2,1.4-2.7,2.5-4.5,3.1
	c-2,0.7-4.1,1-6.3,1c-2.3,0.1-4.5-0.2-6.7-0.9c-1.6-0.5-3.1-1.4-4.3-2.6c-1-1.2-1.8-2.7-2.2-4.2c-0.5-2.5-0.7-5-0.7-7.5v-10
	c-0.1-2.9,0.3-5.8,1.2-8.5c0.8-2.1,2.3-3.8,4.2-4.9c2.4-1.3,5.1-2,7.8-1.9c2.3-0.1,4.7,0.3,6.9,1.2c1.7,0.6,3.2,1.7,4.4,3.1
	c1,1.2,1.7,2.5,2.1,4C124.1,122.1,124.3,124.2,124.3,126.2z M112.4,123.3c0.1-1.3,0-2.6-0.3-3.8c-0.2-0.5-0.8-0.9-1.4-0.8
	c-0.6-0.1-1.2,0.2-1.4,0.8c-0.3,1.2-0.4,2.5-0.4,3.8v17.6c-0.1,1.2,0,2.4,0.4,3.6c0.2,0.6,0.8,0.9,1.4,0.8c0.6,0.1,1.1-0.2,1.4-0.8
	c0.3-1.1,0.4-2.2,0.3-3.3L112.4,123.3z"/>
</svg>
