<svg id="Layer_1" data-name="Layer 1" xmlns="http://www.w3.org/2000/svg" viewBox="0 0 200 200"><defs><style>.cls-1{fill:#fff;}</style></defs><title>logo</title><path class="cls-1" d="M192,8V192H8V8H192m8-8H0V200H200V0Z"/><path class="cls-1" d="M83,45.63v6.21H70.71V45.63Zm0,8.6V93.29H70.71V54.23Z"/><path class="cls-1" d="M109.12,54.23l-.2,3.59a8.91,8.91,0,0,1,3.16-3.23,8.56,8.56,0,0,1,4.31-1.07,8.22,8.22,0,0,1,5,1.44,6.43,6.43,0,0,1,2.5,3.64,33.37,33.37,0,0,1,.56,7.31V93.29H112.57V66.24a24.75,24.75,0,0,0-.27-4.92c-.18-.59-.67-.88-1.47-.88a1.47,1.47,0,0,0-1.59,1,25.38,25.38,0,0,0-.32,5.43V93.29H97V54.23Z"/><path class="cls-1" d="M85.29,103.9v6a14.62,14.62,0,0,0-4.35.34c-.44.22-.66.87-.66,1.93v1.23h5v6.19H82.46v31.94H70.57V119.63H68.12v-6.19h2.45a31.34,31.34,0,0,1,.26-5.15A4.44,4.44,0,0,1,72.14,106a6.79,6.79,0,0,1,2.93-1.55,23.73,23.73,0,0,1,5.86-.53Z"/><path class="cls-1" d="M124.26,126.22v9.57a39.88,39.88,0,0,1-.53,7.73,10.76,10.76,0,0,1-2.27,4.59,10.21,10.21,0,0,1-4.46,3.15,17.73,17.73,0,0,1-6.25,1,22.24,22.24,0,0,1-6.68-.87,9.17,9.17,0,0,1-4.26-2.62,10.34,10.34,0,0,1-2.16-4.24,32,32,0,0,1-.65-7.47v-10a24.31,24.31,0,0,1,1.18-8.5,9.75,9.75,0,0,1,4.24-4.92,14.88,14.88,0,0,1,7.83-1.86,17.74,17.74,0,0,1,6.87,1.2,11,11,0,0,1,4.43,3.1,11.13,11.13,0,0,1,2.14,4A24.63,24.63,0,0,1,124.26,126.22Zm-11.89-2.94a12.77,12.77,0,0,0-.33-3.79,1.32,1.32,0,0,0-1.38-.78,1.38,1.38,0,0,0-1.41.78,11.75,11.75,0,0,0-.36,3.79v17.63a11.23,11.23,0,0,0,.36,3.61,1.34,1.34,0,0,0,1.38.84,1.38,1.38,0,0,0,1.4-.77,10.14,10.14,0,0,0,.34-3.3Z"/></svg>