<svg id="Layer_1" data-name="Layer 1" xmlns="http://www.w3.org/2000/svg" viewBox="0 0 188 119.51"><title>symbol1</title><path d="M179.09,139.58a4.76,4.76,0,0,1-4.79-4.48c0-2.47,2.48-4.48,4.95-4.48,1.32,0,5.8,0,5.8-7.65V110.75c0-10.7-10-19.4-20.67-19.4H33.08c-10.7,0-18.13,8.7-18.13,19.4v11.18c0,4.53,2.41,8.21,6.94,8.21H28.6a4.48,4.48,0,0,1,0,9H21.89C12.43,139.1,6,131.4,6,121.93V110.75C6,95.11,17.44,82.4,33.08,82.4h131.3C180,82.4,194,95.11,194,110.75V123C194,133.06,187.76,139.58,179.09,139.58Z" transform="translate(-6 -40.25)"/><path d="M139,139.1H67.39a4.48,4.48,0,0,1,0-9H139a4.48,4.48,0,1,1,0,9Z" transform="translate(-6 -40.25)"/><path d="M138.89,88.37c-2.44,0-4.44-2.71-4.47-5.16-.22-15.72-19.86-33.67-45.81-33.67-25.26,0-45.8,14.73-45.8,33.05A4.4,4.4,0,0,1,38.33,87a4.52,4.52,0,0,1-4.48-4.52c0-23.27,24.57-42.21,54.76-42.21,28.86,0,54.45,20.41,54.76,42.85,0,2.47-1.94,2.28-4.42,5.27Z" transform="translate(-6 -40.25)"/><path d="M159.72,159.75a22,22,0,1,1,22-22A22,22,0,0,1,159.72,159.75Zm0-35a13,13,0,1,0,13,13A13,13,0,0,0,159.72,124.77Z" transform="translate(-6 -40.25)"/><path d="M48.9,156.77a22,22,0,1,1,22-22A22,22,0,0,1,48.9,156.77Zm0-35a13,13,0,1,0,13,13A13,13,0,0,0,48.9,121.78Z" transform="translate(-6 -40.25)"/><path d="M88.06,89.86a4.48,4.48,0,0,1-4.47-4.48V46.59a4.48,4.48,0,1,1,9,0V85.38A4.49,4.49,0,0,1,88.06,89.86Z" transform="translate(-6 -40.25)"/><path d="M186.76,109.25H174.82a4.48,4.48,0,0,1,0-9h11.94a4.48,4.48,0,0,1,0,9Z" transform="translate(-6 -40.25)"/></svg>