<svg xmlns="http://www.w3.org/2000/svg" viewBox="0 0 70 70"><defs><style>.cls-1{fill:#66932f;}.cls-2{fill:#1f604a;}</style></defs><title>about3</title><g id="Layer_15" data-name="Layer 15"><path class="cls-1" d="M43.12,64.65l-8.94-5.1-4.69,4.7a5.77,5.77,0,0,1-9.12-1.5C19.93,61.82,8.5,22.09,8.5,22.09c0-1.59,9.28,5.6,10.31,4.55s-6.2-10.37-4.61-10.37c0,0,39.67,11.49,40.52,11.84a5.74,5.74,0,0,1,1.73,9.18l-4.94,4.94,5.09,8.94c1.13,1.92.46,4-1.12,5.58l-6.77,6.78C47.13,65.1,45.05,65.77,43.12,64.65Z"/><circle class="cls-2" cx="32.09" cy="40.13" r="5.21"/><path d="M22.5,66.36a7.15,7.15,0,0,1-6.49-4c-.44-.94-8.5-28.91-12-40.89A1.4,1.4,0,0,1,4,21.09a1.71,1.71,0,0,1,1.76-1.73c1,0,2.21.67,5.19,2.46.71.42,1.64,1,2.5,1.46-.48-.86-1.06-1.82-1.49-2.53C9.72,17,9,15.79,9.7,14.62a1.69,1.69,0,0,1,1.92-.79c9.33,2.7,39.82,11.54,40.67,11.9a7,7,0,0,1,4.11,5.14,7.17,7.17,0,0,1-1.89,6.48l-4.13,4.13,4.53,7.94c1.37,2.34.85,5.18-1.37,7.39l-6.77,6.78c-2.18,2.18-5.08,2.71-7.41,1.35l-7.92-4.52-3.89,3.89A7.07,7.07,0,0,1,22.5,66.36ZM7.73,23.4c4.46,15.49,10.58,36.61,11,37.77a4.28,4.28,0,0,0,6.68,1l4.69-4.7a1.5,1.5,0,0,1,1.81-.24l8.94,5.09c1.23.72,2.56.35,3.78-.87l6.77-6.78c.73-.73,1.82-2.18.89-3.77l-5.1-9a1.48,1.48,0,0,1,.24-1.8l4.94-4.94a4.17,4.17,0,0,0,1.07-3.78,4,4,0,0,0-2.32-3c-1-.34-22.09-6.49-37.62-11,.34.59.71,1.19,1,1.7,2.38,4,3.69,6.14,2.35,7.5a1.9,1.9,0,0,1-1.39.55c-1.26,0-3.13-1.09-6.08-2.86Z"/><path d="M64.5,13.14h-13a1.5,1.5,0,0,1,0-3h13a1.5,1.5,0,0,1,0,3Z"/><path d="M58,19.64a1.5,1.5,0,0,1-1.5-1.5v-13a1.5,1.5,0,0,1,3,0v13A1.5,1.5,0,0,1,58,19.64Z"/><path d="M27.14,64.1a1.51,1.51,0,0,1-1.06-.44,1.49,1.49,0,0,1,0-2.12L51.52,36.1a1.49,1.49,0,0,1,2.12,0,1.51,1.51,0,0,1,0,2.12L28.2,63.66A1.51,1.51,0,0,1,27.14,64.1Z"/><path d="M24.83,36.35a1.49,1.49,0,0,1-1.06-.44l-8.48-8.48a1.5,1.5,0,0,1,2.12-2.12l8.48,8.48a1.5,1.5,0,0,1-1.06,2.56Z"/><path d="M29.09,45.84a6.71,6.71,0,1,1,4.74-11.45,6.71,6.71,0,0,1-4.74,11.45Zm0-10.42a3.71,3.71,0,0,0-2.62,6.33,3.79,3.79,0,0,0,5.24,0,3.71,3.71,0,0,0-2.62-6.33Z"/></g></svg>