<svg xmlns="http://www.w3.org/2000/svg" viewBox="0 0 70 70"><defs><style>.cls-1{fill:#edc951;}.cls-2{fill:#1f604a;}.cls-3{fill:#66932f;}</style></defs><title>about2</title><g id="Layer_14" data-name="Layer 14"><path class="cls-1" d="M61.76,24.05a8.94,8.94,0,0,1-2.62,12.37h0A8.94,8.94,0,0,1,46.77,33.8l-8.6-13.23A8.93,8.93,0,0,1,40.79,8.2h0a8.93,8.93,0,0,1,12.37,2.62Z"/><path class="cls-2" d="M27.11,56.56a9,9,0,0,1-12.38-2.62h0a8.94,8.94,0,0,1,2.63-12.37L30.59,33A8.93,8.93,0,0,1,43,35.59h0A8.94,8.94,0,0,1,40.34,48Z"/><path class="cls-3" d="M56.53,62.24a5.69,5.69,0,0,1-6.74,4.39h0a5.7,5.7,0,0,1-4.38-6.75l2.08-9.82a5.69,5.69,0,0,1,6.74-4.38h0a5.68,5.68,0,0,1,4.38,6.74Z"/><path d="M49.27,37.37a10.43,10.43,0,0,1-8.76-4.75l-8.6-13.23A10.44,10.44,0,1,1,49.42,8L58,21.23a10.45,10.45,0,0,1-8.75,16.14ZM40.65,6.25a7.44,7.44,0,0,0-6.23,11.5L43,31a7.44,7.44,0,0,0,12.48-8.11L46.9,9.64A7.43,7.43,0,0,0,40.65,6.25Z"/><path d="M38.08,25.92a1.5,1.5,0,0,1-.8-2.77l13.95-8.7A1.5,1.5,0,1,1,52.81,17l-13.94,8.7A1.54,1.54,0,0,1,38.08,25.92Z"/><path d="M17.24,57.51a10.44,10.44,0,0,1-5.7-19.2l13.23-8.6A10.44,10.44,0,0,1,36.15,47.22l-13.23,8.6A10.35,10.35,0,0,1,17.24,57.51ZM30.45,31a7.47,7.47,0,0,0-4.05,1.2L13.17,40.83a7.44,7.44,0,0,0,8.12,12.48L34.52,44.7A7.44,7.44,0,0,0,30.45,31Z"/><path d="M28.44,51.32a1.51,1.51,0,0,1-1.28-.7l-8.7-13.95A1.5,1.5,0,0,1,21,35.09L29.71,49a1.5,1.5,0,0,1-.48,2.06A1.45,1.45,0,0,1,28.44,51.32Z"/><path d="M46,66.25a6.89,6.89,0,0,1-1.5-.16,7.19,7.19,0,0,1-5.54-8.52L41,47.75a7.22,7.22,0,0,1,7-5.69,7.46,7.46,0,0,1,1.49.15,7.2,7.2,0,0,1,5.54,8.52L53,60.55A7.22,7.22,0,0,1,46,66.25Zm2.07-21.19A4.2,4.2,0,0,0,44,48.38l-2.08,9.81a4.21,4.21,0,0,0,3.23,5,4.25,4.25,0,0,0,5-3.23l2.08-9.82a4.19,4.19,0,0,0-3.23-5A4.28,4.28,0,0,0,48.05,45.06Z"/><path d="M52.25,56.76a1.32,1.32,0,0,1-.34,0L41.83,54.37a1.5,1.5,0,0,1,.68-2.93L52.59,53.8a1.5,1.5,0,0,1-.34,3Z"/></g></svg>