<?xml version="1.0" encoding="utf-8"?>
<!-- Generator: Adobe Illustrator 23.0.2, SVG Export Plug-In . SVG Version: 6.00 Build 0)  -->
<svg version="1.1" id="Layer_1" xmlns="http://www.w3.org/2000/svg" xmlns:xlink="http://www.w3.org/1999/xlink" x="0px" y="0px"
	 viewBox="0 0 55 55" style="enable-background:new 0 0 55 55;" xml:space="preserve">
<style type="text/css">
	.st0{fill:#4D937B;}
	.st1{fill:#DFDECE;}
	.st2{fill:#66932F;}
</style>
<g>
	<g>
		<polyline class="st0" points="47,26.3 47,47.4 11.3,47.4 11.3,26.3 		"/>
	</g>
	<g>
		<g>
			<rect x="22.7" y="33.6" class="st1" width="13.8" height="13.8"/>
		</g>
	</g>
	<g>
		<g>
			<path class="st2" d="M53.5,25.4L47,11.6H12L5.1,25.4c0,0,0,0.3,0.1,0.5c0.5,0.9,2.8,1.8,6.2,1.8s6-0.7,6-1.8c0-0.2,0.1-0.3,0.1,0
				c0,1,2.7,1.8,6,1.8s6-0.7,6-1.8c0-0.2,0.1-0.3,0.1,0c0,1,2.7,1.8,6,1.8c3.3,0,6-0.7,6-1.8c0-0.2,0.1-0.3,0.1,0
				c0,1,2.5,1.8,5.8,1.8c3.3,0,5.8-0.7,5.8-1.8C53.5,25.7,53.5,25.4,53.5,25.4z"/>
		</g>
	</g>
	<g>
		<path d="M34.4,45.8H20.6c-0.7,0-1.2-0.5-1.2-1.2V30.8c0-0.7,0.5-1.2,1.2-1.2h13.8c0.7,0,1.2,0.5,1.2,1.2v13.8
			C35.7,45.2,35.1,45.8,34.4,45.8z M21.8,43.4h11.4V32H21.8V43.4z"/>
	</g>
	<g>
		<path d="M45,45.8H9.2c-0.7,0-1.2-0.5-1.2-1.2V25.5c0-0.7,0.5-1.2,1.2-1.2c0.7,0,1.2,0.5,1.2,1.2v17.9h33.3V25.5
			c0-0.7,0.5-1.2,1.2-1.2c0.7,0,1.2,0.5,1.2,1.2v19.1C46.2,45.2,45.7,45.8,45,45.8z"/>
	</g>
	<g>
		<path d="M45.5,26.5c-1.2,0-4.4-0.1-6.1-1.2c-1.7,1.1-4.9,1.2-6.1,1.2c-1.2,0-4.3-0.1-6.1-1.2c-1.6,1-4.6,1.2-6.1,1.2
			c-1.2,0-4.4-0.1-6.1-1.2c-1.6,1-4.6,1.1-6.1,1.1c-3.6,0-6.4-1-7.2-2.5c-0.3-0.5-0.3-1-0.3-1.2c0-0.2,0-0.4,0.1-0.5l6.9-14
			c0.2-0.4,0.6-0.7,1.1-0.7h35.1c0.5,0,0.9,0.3,1.1,0.7l6.9,14.1c0.1,0.2,0.1,0.3,0.1,0.5v0.6C52.7,26.3,47.2,26.5,45.5,26.5z
			 M40.6,23.2c0.5,0.3,2.2,0.8,4.8,0.8c2.7,0,4.3-0.5,4.8-0.8v0L43.8,10H10.3L3.9,22.9C4.4,23.3,6,24,8.9,24c2.8,0,4.4-0.5,4.8-0.8
			c0.2-1.5,2.3-1.5,2.5,0c0.5,0.3,2.1,0.8,4.8,0.8c2.8,0,4.4-0.5,4.8-0.8c0.2-1.5,2.3-1.5,2.5,0c0.5,0.3,2.1,0.8,4.8,0.8
			c2.7,0,4.4-0.5,4.8-0.8C38.3,21.7,40.4,21.7,40.6,23.2z"/>
	</g>
</g>
</svg>
