<?xml version="1.0" encoding="utf-8"?>
<!-- Generator: Adobe Illustrator 23.0.2, SVG Export Plug-In . SVG Version: 6.00 Build 0)  -->
<svg version="1.1" id="Layer_1" xmlns="http://www.w3.org/2000/svg" xmlns:xlink="http://www.w3.org/1999/xlink" x="0px" y="0px"
	 viewBox="0 0 868 868" style="enable-background:new 0 0 868 868;" xml:space="preserve">
<style type="text/css">
	.st0{fill:none;stroke:#FFFFFF;stroke-width:5;}
	.st1{fill:none;stroke:#FFFFFF;stroke-width:60;stroke-linecap:round;stroke-linejoin:round;}
	.st2{fill:#FFFFFF;}
</style>
<path id="Rounded_Rectangle_1" class="st0" d="M118.5,2.5h631c64.1,0,116,51.9,116,116v631c0,64.1-51.9,116-116,116h-631
	c-64.1,0-116-51.9-116-116v-631C2.5,54.4,54.4,2.5,118.5,2.5z"/>
<path id="Rounded_Rectangle_2" class="st1" d="M294.5,146.5h279c81.7,0,148,66.3,148,148v280c0,81.7-66.3,148-148,148l0,0h-279
	c-81.7,0-148-66.3-148-148l0,0v-280C146.5,212.8,212.8,146.5,294.5,146.5z"/>
<circle class="st1" cx="434.5" cy="434.5" r="138"/>
<circle class="st2" cx="602" cy="265" r="40.5"/>
</svg>
