<?xml version="1.0" encoding="utf-8"?>
<!-- Generator: Adobe Illustrator 23.0.2, SVG Export Plug-In . SVG Version: 6.00 Build 0)  -->
<svg version="1.1" id="Layer_1" xmlns="http://www.w3.org/2000/svg" xmlns:xlink="http://www.w3.org/1999/xlink" x="0px" y="0px"
	 viewBox="0 0 55 55" style="enable-background:new 0 0 55 55;" xml:space="preserve">
<style type="text/css">
	.st0{fill:#4D937B;}
</style>
<g>
	<g>
		<path d="M41.1,22.1c-0.6,0-1.1-0.5-1.1-1.1c0-4-3.2-7.2-7.2-7.2c-0.6,0-1.1-0.5-1.1-1.1s0.5-1.1,1.1-1.1c5.3,0,9.5,4.3,9.5,9.5
			C42.2,21.6,41.7,22.1,41.1,22.1z"/>
	</g>
	<g>
		<path d="M45.6,21.6c-0.6,0-1.1-0.5-1.1-1.1c0-6.2-5-11.2-11.2-11.2c-0.6,0-1.1-0.5-1.1-1.1S32.6,7,33.3,7c7.4,0,13.4,6,13.4,13.4
			C46.7,21,46.2,21.6,45.6,21.6z"/>
	</g>
	<g>
		<g>
			<path class="st0" d="M43.4,33.4l-5,5l-8.9-8.9l-8.9-8.9l5-5c1.2-1.2,1.2-3.1,0-4.3L21,6.7c-1.2-1.2-3.1-1.2-4.3,0l-8.4,8.4
				c-2.4,2.4-2.4,6.2,0,8.6l13.5,13.5l12.9,12.9c2.4,2.4,6.2,2.4,8.6,0l8.4-8.4c1.2-1.2,1.2-3.1,0-4.3l-4-4
				C46.5,32.2,44.6,32.2,43.4,33.4z"/>
		</g>
	</g>
	<g>
		<path d="M36,51.5c-1.9,0-3.7-0.8-5.1-2.1L4.5,23c-1.4-1.4-2.1-3.2-2.1-5.1s0.8-3.7,2.1-5.1l8.4-8.4c0.8-0.8,1.8-1.2,3-1.2
			c1.1,0,2.2,0.4,3,1.2L23.4,9c1.6,1.6,1.6,4.3,0,5.9L19.2,19l16.2,16.2l4.2-4.2c0.8-0.8,1.8-1.2,3-1.2c1.1,0,2.2,0.4,3,1.2l4,4
			c0.8,0.8,1.2,1.8,1.2,3c0,1.1-0.4,2.2-1.2,3l-8.4,8.4C39.7,50.7,37.9,51.5,36,51.5z M15.8,5.4c-0.5,0-1,0.2-1.3,0.6l-8.4,8.4
			c-0.9,0.9-1.4,2.2-1.4,3.5c0,1.3,0.5,2.6,1.4,3.5l26.4,26.4c0.9,0.9,2.2,1.4,3.5,1.4s2.6-0.5,3.5-1.4l8.4-8.4
			c0.7-0.7,0.7-1.9,0-2.7l-4-4c-0.7-0.7-2-0.7-2.7,0l-5,5c-0.4,0.4-1.2,0.4-1.6,0L16.8,19.9c-0.2-0.2-0.3-0.5-0.3-0.8
			s0.1-0.6,0.3-0.8l5-5c0.4-0.4,0.6-0.8,0.6-1.3c0-0.5-0.2-1-0.6-1.3L17.2,6C16.8,5.6,16.3,5.4,15.8,5.4z"/>
	</g>
	<g>
		<path d="M46.1,43.9c-0.3,0-0.6-0.1-0.8-0.3L37,35.3c-0.4-0.4-0.4-1.2,0-1.6c0.4-0.4,1.2-0.4,1.6,0l8.3,8.3c0.4,0.4,0.4,1.2,0,1.6
			C46.6,43.8,46.4,43.9,46.1,43.9z"/>
	</g>
	<g>
		<path d="M20,17.8c-0.3,0-0.6-0.1-0.8-0.3l-8.9-8.9c-0.4-0.4-0.4-1.2,0-1.6c0.4-0.4,1.2-0.4,1.6,0l8.9,8.9c0.4,0.4,0.4,1.2,0,1.6
			C20.6,17.7,20.3,17.8,20,17.8z"/>
	</g>
</g>
</svg>
