<svg id="Layer_1" data-name="Layer 1" xmlns="http://www.w3.org/2000/svg" viewBox="0 0 868 868"><defs><style>.cls-1{fill:#fff;fill-rule:evenodd;}.cls-2{fill:none;stroke:#fff;stroke-width:5px;}</style></defs><title>twitter</title><path class="cls-1" d="M102.5,636.46s78.11,9.57,141-20c37.18-17.48,57.61-35.72,57.61-35.72s-37.9-.15-67.61-21.27c-42.06-29.89-60-70-60-70l62-4s-41.53-14.73-70-43c-34.95-34.69-32.24-88-32.24-88l54,15s-25.81-16-43.71-49.93c-30.4-57.62,2.42-128.36,5.74-128.37,0,0,54.69,57.67,122.26,95.38,77.43,43.2,153,44,153,44s-17.32-99.35,55-143.94c97.19-59.91,177.66,21.08,177.66,21.08s19.51-2.4,45.34-13.08a229.58,229.58,0,0,0,42-23s-3.28,21.19-25,46c-15,17.1-30.87,32-30.87,32l76.87-22-66,73s3.88,262.52-250,374.31C267.7,754.91,102.5,635.57,102.5,636.46Z"/><rect id="Rounded_Rectangle_1" data-name="Rounded Rectangle 1" class="cls-2" x="2.5" y="2.5" width="863" height="863" rx="116"/></svg>